# xmcd
#
# Track frame offsets:
# 150
# 16409
# 31495
# 49111
# 63056
# 79017
# 93315
# 110790
# 125500
# 144347
# 161030
#
# Disc length: 2338 seconds
#
#
# Revision: 0
# Processed by: cddbd v1.5.2PL0 Copyright (c) Steve Scherf et al.
# Submitted via: FreeRIP 2.951 
#
DISCID=8c09200b
DTITLE=Olivar Barreto - Olivar Barreto
DYEAR=2001
DGENRE=JPop
TTITLE0=Merenguêra
TTITLE1=Acho
TTITLE2=Tudo o que eu preciso
TTITLE3=Além dos muros
TTITLE4=Rastro de saudade
TTITLE5=Ícones - O criador e a criatura
TTITLE6=Batida
TTITLE7=Nuvens são nuvens
TTITLE8=Mesa de bar
TTITLE9=Canto de casa
TTITLE10=Última oração
EXTD=
EXTT0=
EXTT1=
EXTT2=
EXTT3=
EXTT4=
EXTT5=
EXTT6=
EXTT7=
EXTT8=
EXTT9=
EXTT10=
PLAYORDER=
